<?xml version="1.0" encoding="UTF-8"?>
<svg xmlns="http://www.w3.org/2000/svg" id="Layer_2" viewBox="0 0 291.78 133.6">
  <defs>
    <style>.cls-1{fill:none;}.cls-2{fill:#1a1a1a;}.cls-3{fill:#6fc7ba;}</style>
  </defs>
  <g id="Layer_1-2">
    <path class="cls-3" d="m101.36,51.81c-1.91-4.59-4.9-8.85-8.36-12.3-3.46-3.46-7.88-6.05-12.47-7.96-4.43-1.83-9.35-2.75-14.44-2.75s-10.32.18-14.74,2.02c-4.59,1.9-8.43,5.51-11.89,8.97-3.46,3.45-7.47,7.12-9.37,11.71-1.84,4.43-1.24,9.82-1.24,14.91s.37,10.09,2.21,14.52c1.9,4.58,5.77,7.83,9.23,11.28,3.46,3.46,6.59,7.6,11.18,9.5,4.43,1.84,9.53,3.09,14.62,3.09s10.09-1.51,14.51-3.35c4.59-1.9,8.74-4.87,12.19-8.33,3.46-3.46,6.25-7.68,8.15-12.27,1.84-4.43,3.94-9.35,3.94-14.44s-1.69-10.18-3.52-14.6Zm-24.61,36.3l-8.07-1.2,2.31-15.6-16.89,13-4.96-6.49,14.81-11.41-14.81-11.4,4.96-6.49,16.89,13-2.31-15.6,8.07-1.2,3.2,21.69-3.2,21.7Z"></path>
    <path class="cls-2" d="m179.06,62.7c-2.18-2.4-5.53-2.91-8.1-2.91-4.02,0-7.82,1.18-10.39,2.8-.5.33-.56.61-.33,1.11l1.62,3.52c.28.62.67.62,1.22.28,1.9-1.06,4.36-2.01,6.99-2.01,1.28,0,2.46.34,3.07,1.12.56.67.78,1.62.78,2.9v.56c-3.01.23-7.04.67-10.11,2.01-2.68,1.23-4.64,3.19-4.64,6.48,0,2.52.95,4.53,2.52,5.81,1.51,1.34,3.63,2.07,5.92,2.07,2.57,0,4.52-.39,6.82-1.84h.22v.44c0,.45.39.84.89.84h4.92c.45,0,.84-.39.84-.84v-15.53c0-3.24-.84-5.25-2.24-6.81Zm-5.14,17.2c-1.28.79-2.62,1.07-3.91,1.07-2.06,0-3.8-.84-3.8-2.63,0-2.74,4.36-3.18,7.71-3.3v4.86Z"></path>
    <path class="cls-2" d="m202.24,71.75c-1.79-.89-3.41-1.4-5.2-2.12-1.29-.5-2.46-1.06-2.46-2.18,0-1.29,1.12-1.79,2.63-1.79,1.62,0,3.52.39,5.75,1.62.45.22.78.17,1.01-.28l2.01-4.13c.22-.39.22-.84-.34-1.12-2.01-1.12-4.58-1.96-8.66-1.96-6.59,0-10.22,2.96-10.22,7.65,0,3.24,1.4,5.36,4.13,6.7,1.79.89,3.74,1.51,5.36,2.23,1.4.62,2.4,1.06,2.4,2.29,0,1.34-1.12,2.01-2.96,2.01-2.4,0-4.08-.78-6.31-2.07-.45-.22-.84-.11-1.06.33l-2.07,4.3c-.22.39-.11.78.39,1.06,1.96,1.12,4.58,2.12,9.22,2.12,6.48,0,10.56-3.52,10.56-8.21,0-2.74-1.17-5.03-4.19-6.48Z"></path>
    <path class="cls-2" d="m233.21,63.82c-2.68-2.69-6.81-4.03-11.5-4.03-3.3,0-6.71.28-9,.9-.56.16-.84.5-.84,1v36.42c0,.51.34.9.84.9h5.7c.45,0,.84-.39.84-.9v-12.12c1.23.34,2.46.45,3.91.45,3.91,0,7.99-1.23,10.61-4.19,1.85-2.12,3.02-5.08,3.02-9.11s-1.34-7.15-3.58-9.32Zm-5.75,14.97c-1.4,1.23-3.24,1.62-5.08,1.62-1.23,0-2.24-.17-3.13-.51v-13.85c.95-.17,2.18-.22,3.18-.22,2.18,0,4.02.72,5.25,2.06,1.12,1.29,1.79,3.02,1.79,5.25,0,2.63-.78,4.53-2.01,5.65Z"></path>
    <path class="cls-2" d="m260.7,62.7c-2.18-2.4-5.53-2.91-8.1-2.91-4.02,0-7.82,1.18-10.39,2.8-.51.33-.56.61-.34,1.11l1.62,3.52c.28.62.67.62,1.23.28,1.9-1.06,4.36-2.01,6.98-2.01,1.29,0,2.46.34,3.08,1.12.55.67.78,1.62.78,2.9v.56c-3.02.23-7.04.67-10.11,2.01-2.68,1.23-4.64,3.19-4.64,6.48,0,2.52.95,4.53,2.51,5.81,1.51,1.34,3.64,2.07,5.93,2.07,2.57,0,4.52-.39,6.81-1.84h.22v.44c0,.45.4.84.9.84h4.91c.45,0,.84-.39.84-.84v-15.53c0-3.24-.84-5.25-2.23-6.81Zm-5.14,17.2c-1.29.79-2.63,1.07-3.91,1.07-2.07,0-3.8-.84-3.8-2.63,0-2.74,4.36-3.18,7.71-3.3v4.86Z"></path>
    <path class="cls-2" d="m157.21,47.84h-8.1c-.67,0-1.23.28-1.73.84l-11.43,11.19v-11.19c0-.45-.34-.84-.84-.84h-6.31c-.5,0-.89.39-.89.84v36.37c0,.45.39.84.89.84h6.31c.5,0,.84-.39.84-.84v-11.19l11.43,11.19c.5.56,1.06.84,1.73.84h8.1c.73,0,1.01-.67.39-1.28l-18.13-17.74,18.13-17.74c.61-.61.33-1.28-.39-1.28Z"></path>
    <path class="cls-1" d="m0,0v133.6h291.78V0H0Zm54.1,84.31l-4.96-6.49,14.81-11.41-14.81-11.4,4.96-6.49,16.89,13-2.31-15.6,8.07-1.2,3.2,21.69-3.2,21.7-8.07-1.2,2.31-15.6-16.89,13Z"></path>
  </g>
</svg>
